<mxfile host="Electron" agent="Mozilla/5.0 (X11; Linux x86_64) AppleWebKit/537.36 (KHTML, like Gecko) draw.io/26.2.2 Chrome/134.0.6998.178 Electron/35.1.2 Safari/537.36" version="26.2.2">
  <diagram name="Página-1" id="BakqYVgqDOj-Tn5B0C5e">
    <mxGraphModel dx="1362" dy="843" grid="1" gridSize="10" guides="1" tooltips="1" connect="1" arrows="1" fold="1" page="1" pageScale="1" pageWidth="827" pageHeight="1169" math="0" shadow="0">
      <root>
        <mxCell id="0" />
        <mxCell id="1" parent="0" />
        <mxCell id="SGCWJ3ADr1alrxqsZNFG-5" value="" style="edgeStyle=orthogonalEdgeStyle;rounded=0;orthogonalLoop=1;jettySize=auto;html=1;" edge="1" parent="1" source="SGCWJ3ADr1alrxqsZNFG-1" target="SGCWJ3ADr1alrxqsZNFG-4">
          <mxGeometry relative="1" as="geometry" />
        </mxCell>
        <mxCell id="SGCWJ3ADr1alrxqsZNFG-1" value="INICIO" style="ellipse;whiteSpace=wrap;html=1;" vertex="1" parent="1">
          <mxGeometry x="354" y="80" width="120" height="80" as="geometry" />
        </mxCell>
        <mxCell id="SGCWJ3ADr1alrxqsZNFG-2" value="LLEGAR AL BAÑO" style="text;html=1;align=center;verticalAlign=middle;whiteSpace=wrap;rounded=0;" vertex="1" parent="1">
          <mxGeometry x="140" y="70" width="60" height="30" as="geometry" />
        </mxCell>
        <mxCell id="SGCWJ3ADr1alrxqsZNFG-7" value="" style="edgeStyle=orthogonalEdgeStyle;rounded=0;orthogonalLoop=1;jettySize=auto;html=1;" edge="1" parent="1" source="SGCWJ3ADr1alrxqsZNFG-4" target="SGCWJ3ADr1alrxqsZNFG-6">
          <mxGeometry relative="1" as="geometry" />
        </mxCell>
        <mxCell id="SGCWJ3ADr1alrxqsZNFG-4" value="Orientate a 165° hacia el sur" style="whiteSpace=wrap;html=1;" vertex="1" parent="1">
          <mxGeometry x="354" y="190" width="120" height="60" as="geometry" />
        </mxCell>
        <mxCell id="SGCWJ3ADr1alrxqsZNFG-11" value="" style="edgeStyle=orthogonalEdgeStyle;rounded=0;orthogonalLoop=1;jettySize=auto;html=1;" edge="1" parent="1" source="SGCWJ3ADr1alrxqsZNFG-6" target="SGCWJ3ADr1alrxqsZNFG-10">
          <mxGeometry relative="1" as="geometry" />
        </mxCell>
        <mxCell id="SGCWJ3ADr1alrxqsZNFG-6" value="Avanza 14 pasos al frente" style="whiteSpace=wrap;html=1;" vertex="1" parent="1">
          <mxGeometry x="354" y="280" width="120" height="60" as="geometry" />
        </mxCell>
        <mxCell id="SGCWJ3ADr1alrxqsZNFG-15" value="" style="edgeStyle=orthogonalEdgeStyle;rounded=0;orthogonalLoop=1;jettySize=auto;html=1;" edge="1" parent="1" source="SGCWJ3ADr1alrxqsZNFG-10" target="SGCWJ3ADr1alrxqsZNFG-14">
          <mxGeometry relative="1" as="geometry" />
        </mxCell>
        <mxCell id="SGCWJ3ADr1alrxqsZNFG-10" value="¿Hay un obstáculo?" style="rhombus;whiteSpace=wrap;html=1;" vertex="1" parent="1">
          <mxGeometry x="364" y="360" width="100" height="100" as="geometry" />
        </mxCell>
        <mxCell id="SGCWJ3ADr1alrxqsZNFG-17" value="" style="edgeStyle=orthogonalEdgeStyle;rounded=0;orthogonalLoop=1;jettySize=auto;html=1;" edge="1" parent="1" source="SGCWJ3ADr1alrxqsZNFG-14" target="SGCWJ3ADr1alrxqsZNFG-16">
          <mxGeometry relative="1" as="geometry" />
        </mxCell>
        <mxCell id="SGCWJ3ADr1alrxqsZNFG-14" value="¿El obstáculo se puede mover?" style="rhombus;whiteSpace=wrap;html=1;" vertex="1" parent="1">
          <mxGeometry x="520" y="355" width="110" height="110" as="geometry" />
        </mxCell>
        <mxCell id="SGCWJ3ADr1alrxqsZNFG-16" value="Movemos el obstáculo del camino que vamos a transitar" style="whiteSpace=wrap;html=1;" vertex="1" parent="1">
          <mxGeometry x="660" y="380" width="120" height="60" as="geometry" />
        </mxCell>
      </root>
    </mxGraphModel>
  </diagram>
</mxfile>
